<mxfile host="app.diagrams.net" modified="2023-04-11T21:54:24.589Z" agent="Mozilla/5.0 (Macintosh; Intel Mac OS X 10_15_7) AppleWebKit/537.36 (KHTML, like Gecko) Chrome/111.0.0.0 Safari/537.36" etag="vxcSiHzlaK7BBSWC3jq6" version="21.1.6" type="github">
  <diagram id="R2lEEEUBdFMjLlhIrx00" name="Page-1">
    <mxGraphModel dx="830" dy="536" grid="1" gridSize="10" guides="1" tooltips="1" connect="1" arrows="1" fold="1" page="1" pageScale="1" pageWidth="850" pageHeight="1100" math="0" shadow="0" extFonts="Permanent Marker^https://fonts.googleapis.com/css?family=Permanent+Marker">
      <root>
        <mxCell id="0" />
        <mxCell id="1" parent="0" />
        <mxCell id="tKcqsoHF7rKRLw9oKf3Y-1" value="PART&lt;br&gt;&lt;br&gt;&lt;u&gt;Part No.&lt;br&gt;&lt;/u&gt;Description" style="rounded=0;whiteSpace=wrap;html=1;" vertex="1" parent="1">
          <mxGeometry x="160" y="110" width="120" height="70" as="geometry" />
        </mxCell>
        <mxCell id="tKcqsoHF7rKRLw9oKf3Y-2" value="SUPPLIER&lt;br&gt;&lt;br&gt;&lt;u&gt;Supplier ID&lt;br&gt;&lt;/u&gt;Name&lt;br&gt;Phone No." style="rounded=0;whiteSpace=wrap;html=1;" vertex="1" parent="1">
          <mxGeometry x="530" y="100" width="120" height="90" as="geometry" />
        </mxCell>
        <mxCell id="tKcqsoHF7rKRLw9oKf3Y-3" value="TRANSACTION&lt;br&gt;&lt;br&gt;&lt;u&gt;Trans ID&lt;/u&gt;&amp;nbsp;(Part No., Supplier ID)&lt;br&gt;Price" style="rounded=1;whiteSpace=wrap;html=1;" vertex="1" parent="1">
          <mxGeometry x="350" y="105" width="120" height="80" as="geometry" />
        </mxCell>
        <mxCell id="tKcqsoHF7rKRLw9oKf3Y-4" value="" style="edgeStyle=entityRelationEdgeStyle;fontSize=12;html=1;endArrow=ERmany;rounded=0;exitX=1;exitY=0.5;exitDx=0;exitDy=0;entryX=0;entryY=0.5;entryDx=0;entryDy=0;" edge="1" parent="1" source="tKcqsoHF7rKRLw9oKf3Y-1" target="tKcqsoHF7rKRLw9oKf3Y-3">
          <mxGeometry width="100" height="100" relative="1" as="geometry">
            <mxPoint x="360" y="350" as="sourcePoint" />
            <mxPoint x="460" y="250" as="targetPoint" />
          </mxGeometry>
        </mxCell>
        <mxCell id="tKcqsoHF7rKRLw9oKf3Y-6" value="" style="edgeStyle=entityRelationEdgeStyle;fontSize=12;html=1;endArrow=ERmany;rounded=0;exitX=0;exitY=0.5;exitDx=0;exitDy=0;entryX=1;entryY=0.5;entryDx=0;entryDy=0;" edge="1" parent="1" source="tKcqsoHF7rKRLw9oKf3Y-2" target="tKcqsoHF7rKRLw9oKf3Y-3">
          <mxGeometry width="100" height="100" relative="1" as="geometry">
            <mxPoint x="430" y="330" as="sourcePoint" />
            <mxPoint x="530" y="230" as="targetPoint" />
          </mxGeometry>
        </mxCell>
        <mxCell id="tKcqsoHF7rKRLw9oKf3Y-7" value="PROFESSOR" style="whiteSpace=wrap;html=1;align=center;" vertex="1" parent="1">
          <mxGeometry x="270" y="300" width="100" height="40" as="geometry" />
        </mxCell>
        <mxCell id="tKcqsoHF7rKRLw9oKf3Y-8" value="CLASS" style="whiteSpace=wrap;html=1;align=center;" vertex="1" parent="1">
          <mxGeometry x="460" y="300" width="100" height="40" as="geometry" />
        </mxCell>
        <mxCell id="tKcqsoHF7rKRLw9oKf3Y-9" value="" style="edgeStyle=entityRelationEdgeStyle;fontSize=12;html=1;endArrow=ERzeroToMany;endFill=1;rounded=0;exitX=1;exitY=0.5;exitDx=0;exitDy=0;entryX=0;entryY=0.5;entryDx=0;entryDy=0;startArrow=ERmandOne;startFill=0;" edge="1" parent="1" source="tKcqsoHF7rKRLw9oKf3Y-7" target="tKcqsoHF7rKRLw9oKf3Y-8">
          <mxGeometry width="100" height="100" relative="1" as="geometry">
            <mxPoint x="290" y="530" as="sourcePoint" />
            <mxPoint x="390" y="430" as="targetPoint" />
          </mxGeometry>
        </mxCell>
        <mxCell id="tKcqsoHF7rKRLw9oKf3Y-13" style="edgeStyle=orthogonalEdgeStyle;rounded=0;orthogonalLoop=1;jettySize=auto;html=1;exitX=1;exitY=0.5;exitDx=0;exitDy=0;entryX=0;entryY=0.5;entryDx=0;entryDy=0;endArrow=ERoneToMany;endFill=0;startArrow=ERoneToMany;startFill=0;" edge="1" parent="1" source="tKcqsoHF7rKRLw9oKf3Y-11" target="tKcqsoHF7rKRLw9oKf3Y-12">
          <mxGeometry relative="1" as="geometry" />
        </mxCell>
        <mxCell id="tKcqsoHF7rKRLw9oKf3Y-11" value="EMPLOYEE" style="whiteSpace=wrap;html=1;align=center;" vertex="1" parent="1">
          <mxGeometry x="370" y="450" width="100" height="40" as="geometry" />
        </mxCell>
        <mxCell id="tKcqsoHF7rKRLw9oKf3Y-12" value="DEPARTMENT" style="whiteSpace=wrap;html=1;align=center;" vertex="1" parent="1">
          <mxGeometry x="530" y="450" width="100" height="40" as="geometry" />
        </mxCell>
        <mxCell id="tKcqsoHF7rKRLw9oKf3Y-16" style="edgeStyle=orthogonalEdgeStyle;rounded=0;orthogonalLoop=1;jettySize=auto;html=1;entryX=0;entryY=0.5;entryDx=0;entryDy=0;endArrow=ERoneToMany;endFill=0;startArrow=ERzeroToMany;startFill=0;" edge="1" parent="1" source="tKcqsoHF7rKRLw9oKf3Y-15" target="tKcqsoHF7rKRLw9oKf3Y-11">
          <mxGeometry relative="1" as="geometry" />
        </mxCell>
        <mxCell id="tKcqsoHF7rKRLw9oKf3Y-15" value="PROJECT" style="whiteSpace=wrap;html=1;align=center;" vertex="1" parent="1">
          <mxGeometry x="200" y="450" width="100" height="40" as="geometry" />
        </mxCell>
      </root>
    </mxGraphModel>
  </diagram>
</mxfile>
